<svg id="Layer_1" data-name="Layer 1" xmlns="http://www.w3.org/2000/svg" viewBox="0 0 640 480"><defs><style>.cls-1{fill:#4d0099;}.cls-2{fill:#fff;stroke:#000;stroke-miterlimit:10;}</style></defs><title>WhiteRaven</title><rect class="cls-1" width="640" height="480"/><path id="Raven" class="cls-2" d="M236,335c-.4.16-1.18-.55-1.48-.74-2.53-1.64-6-1.32-8.87-1.4a42.68,42.68,0,0,1-8.88-.83c-2.21-.54-7.08-2.24-6.8-5.24a2,2,0,0,0,0-.73,1.33,1.33,0,0,0-.5-.61c-3.47-2.84-7.39-4.62-11.2-6.89a8.22,8.22,0,0,1-2.6-2.19,4.18,4.18,0,0,1-.7-2.72c0-.9.15-1.53-.73-2-2.33-1.31-4.82-2.4-7.21-3.59a18.63,18.63,0,0,1-1.91-1.06,6.81,6.81,0,0,1-2.45-2.55c-.65-1.48-.85-3.72.07-5.11a1,1,0,0,1,.38-.37.89.89,0,0,1,.43-.07c.49,0,1,.12,1.48.11a3.8,3.8,0,0,0,2.94-2c-.19.28-3.86-1-4.29-1.17a45.24,45.24,0,0,1-4.5-1.71c-2.68-1.19-5.63-2.52-7.63-4.73a5.83,5.83,0,0,1-1.61-3.64,7.78,7.78,0,0,0-.11-2.6,4.19,4.19,0,0,0-1-1.37c-1.53-1.52-3.13-3-4.68-4.47s-3.05-2.53-3.19-4.68c0-.5-.18-2.08.16-2.48s.84-.2,1.18-.26,2.11-.26,1.71-.89c-.79-1.23-2.47-1.48-3.79-1.72a12.57,12.57,0,0,1-4.07-1.42,11.94,11.94,0,0,1-5.47-6.7,5.91,5.91,0,0,1-.29-2.46c.13-.91.57-1.74.74-2.64A3.09,3.09,0,0,1,152,252s-6.32-4.64-6.88-5.05a30.79,30.79,0,0,1-7.51-7.16,6.05,6.05,0,0,1-1.36-3.87c.14-1.45,1.12-2.66,1.75-3.92-2.23-2.23-4.66-4.16-7-6.25a15.67,15.67,0,0,1-4.3-5.48,4.5,4.5,0,0,1-.38-2.94c.39-1.35,1.56-1.77,2.69-2.33-2.54-2.54-5.62-4.44-8.12-7.09a4.09,4.09,0,0,1-.75-1,3.22,3.22,0,0,1,.18-2.59c.77-1.74,2.37-3,3.69-4.32-.44.44-2.54-.42-3-.63-1.47-.7-1.46-2.26-2.24-3.52a6.5,6.5,0,0,1-.74-1.16c-.31-.85.68-4.69,2-4.69h-2.85c-2.14,0-5.7-1.54-6-3.94a4.93,4.93,0,0,1,.4-2.36,1.94,1.94,0,0,1,.33-.58,2.15,2.15,0,0,1,.55-.38,6,6,0,0,1,2.18-.68c.62-.08,2,.08,1.25-1a2.49,2.49,0,0,0-.69-.6c-1.09-.73-2.32-1.22-3.36-2a16.15,16.15,0,0,1-2.59-2.88,19.42,19.42,0,0,0-4.2-3.27c-3.93-2.57-7.8-5.52-10.16-9.58a5,5,0,0,1,.11-5.72c3.79-.54,7.1,1.14,10.62,2.29,2.17.7,4.36,1.37,6.56,2,1.1.31,2.2.61,3.31.9.63.16,2,.28,2.49.76-1.69-1.69-4.11-2.86-6-4.34q-3.87-3-7.65-6.21C98,147.18,91.88,141.72,86,136a3.19,3.19,0,0,1-1-1.36,3.1,3.1,0,0,1,0-1,.9.9,0,0,1,.12-.46c.6-.88,4.07.59,4.79.9,1.6.67,3.1,1.55,4.68,2.26,3.74,1.67,7.43,3.45,11.11,5.24l8.41,4.07,12.75,6.18,13.21,6.4c3.64,1.76,7.24,3.32,11,4.82l-6-4.51c-3.72-2.79-7-6.3-10.42-9.45s-7-6.63-10.47-10c-3.25-3.19-6.74-6.27-9.55-9.86q-6.35-8.1-12.17-16.58a8.54,8.54,0,0,1-1.32-2.47c-.31-1.14,0-3.18,1.62-3.09a3,3,0,0,1,1.08.35c4.79,2.24,8.89,5.61,13,8.89,4.5,3.6,9.2,7,13.89,10.35,3.34,2.4,6.72,4.76,10,7.23,2.24,1.68,4.44,3.4,6.78,4.94s4.89,2.69,7.15,4.4A17.18,17.18,0,0,0,160,146c-.63-.21-1-1.32-1.31-1.83-.49-.82-1-1.63-1.54-2.44-2.74-4.15-5.93-8-8.84-12-2.79-3.86-5.31-7.89-7.73-12-2.29-3.89-4.88-7.75-6.38-12-.47-1.36-.85-2.75-1.42-4.08-.79-1.87-1.94-3.59-2.66-5.5-.32-.85-2.15-6.14,0-6a1.42,1.42,0,0,1,.68.26c2.08,1.34,3.29,3.62,4.7,5.58A69.77,69.77,0,0,0,141.2,102c4.06,4.4,7.63,9.28,11.62,13.69,3.43,3.77,7.07,7.35,10.51,11.12a42.65,42.65,0,0,0,4.18,4.53,28.48,28.48,0,0,1,4.56,4.07c1,1.24,1.63,2.71,2.54,4,1.81,2.58,4.49,4.32,6.82,6.38,2.62,2.31,5.15,4.76,7.65,7.21,1.54,1.52,3,3.08,4.54,4.63A20.16,20.16,0,0,0,197,160c-.57-.38-1.1-1.8-1.49-2.37q-1.19-1.8-2.28-3.66c-1.46-2.47-2.82-5-4.16-7.55a158.57,158.57,0,0,0-8.9-15.37,41.24,41.24,0,0,1-3.64-5.9c-2-4.37-2.18-9.35-4.36-13.66A40.07,40.07,0,0,1,168,97a5.81,5.81,0,0,1,2.21.22c1.35.7,2.26,2.39,3.07,3.62,1.06,1.6,2,3.26,3,4.89,5.43,8.73,12,16.69,17.7,25.24l7,9c2.31,3,4.51,6,6.95,8.89,3.05,3.56,6.35,6.92,9.16,10.69,2,2.65,3.69,5.48,5.74,8.07A76.82,76.82,0,0,0,229,174c-.52-1.3-.95-2.67-1.56-3.93s-1.37-2.4-2-3.66a5.74,5.74,0,0,1-.6-1.88,2,2,0,0,1,2.65-2.24,4.58,4.58,0,0,1,1.86,1.15,11.36,11.36,0,0,1,2.45,3.22,14.46,14.46,0,0,0,1.2,2.27c.51.7,1.2,1.25,1.75,1.92,1.25,1.57,1.91,3.58,3,5.25a64.09,64.09,0,0,0,4.07,5.22c2.29,2.73,4.62,5.42,6.95,8.11a87.39,87.39,0,0,0,6,6.48,62.54,62.54,0,0,0,7.43,5.6c5.12,3.53,10.46,6.72,15.67,10.12,11.25,7.33,22,15.46,32.76,23.48l6.12,4.57c1.44,1.08,2.88,2.16,4.21,3.38a36.9,36.9,0,0,1,3.91,4.28,57.82,57.82,0,0,1,7.64,14c1,2.49,2,5,3.06,7.49.52,1.23,1.06,2.47,1.63,3.68A4.34,4.34,0,0,0,340,275c.3.13,2.56-1.67,2.91-1.9l3.28-2.11c2-1.3,4-2.61,6.07-3.86l13-7.95a10,10,0,0,0,1.47-1,9,9,0,0,0,1.49-1.91,40.06,40.06,0,0,1,2.87-4.29c2-2.44,5.1-3.49,7.77-5q4.78-2.67,9.37-5.65a33.24,33.24,0,0,1,3.9-2.3c1.09-.52,2.24-.92,3.34-1.41a30.79,30.79,0,0,0,6.17-3.85c4.71-3.64,8.38-8.76,13.51-11.83s8.88-6.13,11.94-11.41,4.72-11.19,7.93-16.31a3.48,3.48,0,0,1,3.22-1.9c3,.47,3.35,5.72,4.09,7.91.13.37.38.82.77.75s.4-.28.51-.5c4.59-8.83,1.09-19.5,5.2-28.49,7.72-16.89,18.94,9.65,20.21,16.42.12.61.3,1.32.88,1.57-.07,0,7.21-23.69,7.51-25.74,1.06-7,1.76-14.31,5.66-20.42a5.52,5.52,0,0,1,2.7-2.53,4.15,4.15,0,0,1,3.82,1c4.83,4.1,5.34,12.2,6.4,18a59.9,59.9,0,0,1,.85,6.67c.11,1.59-.42,4.17,1.21,5.14-.83-.49,4.26-13.8,4.66-15.53,1.85-8.16,1.4-18.75,9.94-23.29a6,6,0,0,1,3.67-.84,5.16,5.16,0,0,1,3.47,2.7,21.17,21.17,0,0,1,1.94,7.35A99,99,0,0,1,523,155c3.67-5.5,5.87-12.1,9-18,1.57-2.92,5.46,3.9,5.83,4.7,3.07,6.65,1.79,14.6,2.39,21.71.71,8.45-.44,16.66-2.36,24.87-1,4.15-2.76,8-3,12.34a1.5,1.5,0,0,0,.58,1.4c.76.45,1.66-.33,2.11-1.09a36.49,36.49,0,0,0,1.87-4.46A7.06,7.06,0,0,1,542,193c2.85,1.74,2.81,7.64,2.69,10.47A58.7,58.7,0,0,1,542.31,216a31.32,31.32,0,0,1-1.64,4.93,26.33,26.33,0,0,1-2.27,3.82,94.66,94.66,0,0,1-6,8c-2.16,2.5-5.11,4.15-7.74,6.08-2,1.46-3.84,3.1-5.84,4.54-5,3.61-10.74,5.94-16.15,8.85-10.21,5.5-19.07,13.36-28.7,19.78l1,1c2.65,2.65-8.95,7.15-9.95,7.62q-9,4.15-17.88,8.43c-5.28,2.55-10.54,5.15-15.92,7.48-1.94.84-12.1,4.93-11.26,7.59.3.93,7,2.64,8.1,3.08,2.74,1.08,5.49,2.2,8.16,3.45a15.86,15.86,0,0,1,8.58,10.47,18.7,18.7,0,0,0,1.45,4.93,20.66,20.66,0,0,0,1.94,2.45c3.11,3.74,4.92,7.79,8.78,10.88a51.29,51.29,0,0,1,10.17,10.94A9.2,9.2,0,0,1,469,356v1c0,.66-11.58-1.17-12.52-1.34l-2.46-.44c-1.18-.21-2.37-.42-3.53-.72a48.07,48.07,0,0,1-5.61-1.9c-3.62-1.39-7.57-4.08-11.34-3.16-2.9.71-5.57,2.15-8.46,2.91-5.19,1.35-10.66.91-15.95.72-3.93-.14-7.85-.13-11.78-.12-3.77,0-7-.25-10.6,1-6.83,2.41-12.84,6.64-19.6,9.23-1.59.61-3.23,1.12-4.77,1.86-1.72.83-3.29,1.92-4.92,2.91-7.48,4.54-16.07,6.86-24.53,9.14-3.33.89-6.65,2-10.09,1.89-3-.07-5.93,0-8.9,0a1.84,1.84,0,0,0-1,.21,2.61,2.61,0,0,0-.73,1.14c-.82,1.73-2.61,2.21-3.85,3.45-1.65,1.64-2.55,3.69-4.58,5-4.72,3.11-12.21,2.5-17.61,2.31a15.06,15.06,0,0,1-4.49-.65c-1.72-.6-3.25-1.75-5.05-2a6.32,6.32,0,0,1-2.58-.56,15.59,15.59,0,0,1-1.23-1.21c-3.11-2.66-9.14.22-12.9-1.55a3.62,3.62,0,0,1-1.87-1.68c-.75-1.71-5.07.41-6.22.88A45.45,45.45,0,0,1,235,388.14c-6.29,0-12.43-1.71-18.43-3.42a5.26,5.26,0,0,1-2.88-1.53c-.37-.47-.57-1.06-1-1.49-.83-.85-2.18-.81-3.37-.75a51.62,51.62,0,0,1-10.54-.54c-6.36-1-11.31-5.81-18-5.39a31,31,0,0,0-5.92,1.21c-11.59,3.07-23.48,4.68-35.28,6.66A266.23,266.23,0,0,1,99,386a2,2,0,0,1,.91-2.6c2.13-1.44,4.21-2.94,6.33-4.39,1.82-1.24,3.77-2.27,5.18-4.05a12.27,12.27,0,0,1,2.19-2.51,7.4,7.4,0,0,1,2.07-.92c4.91-1.53,10.12-.71,15-2,5.45-1.47,11-2.57,16.54-3.53,12.65-2.18,25.8-3.19,37.75-8,8.24-3.29,17.06-4.63,25.13-8.6a139,139,0,0,0,18.53-10.67A33.88,33.88,0,0,1,236,335Z"/></svg>