<svg xmlns="http://www.w3.org/2000/svg" viewBox="0 0 640 480"><defs><style>.cls-1{fill:#fff;stroke:#000;stroke-miterlimit:10;}</style></defs><title>WhiteRaven-white</title><g id="Layer_2" data-name="Layer 2"><path id="Raven" class="cls-1" d="M241.16,334.32c-.4.16-1.17-.54-1.48-.74-2.53-1.63-6-1.31-8.87-1.4a42.53,42.53,0,0,1-8.87-.83c-2.22-.54-7.09-2.24-6.81-5.23a2,2,0,0,0,0-.73,1.31,1.31,0,0,0-.5-.62c-3.47-2.83-7.38-4.62-11.19-6.89a8,8,0,0,1-2.61-2.19,4.23,4.23,0,0,1-.7-2.72c0-.9.15-1.52-.73-2-2.32-1.32-4.81-2.41-7.2-3.6a15.59,15.59,0,0,1-1.92-1.06,6.83,6.83,0,0,1-2.44-2.54c-.65-1.49-.85-3.73.07-5.12a.9.9,0,0,1,.38-.37,1,1,0,0,1,.42-.07c.5,0,1,.13,1.49.11a3.8,3.8,0,0,0,2.93-2c-.19.28-3.86-1-4.29-1.16-1.52-.5-3-1.07-4.5-1.72-2.68-1.19-5.63-2.52-7.62-4.73a5.79,5.79,0,0,1-1.61-3.64,7.79,7.79,0,0,0-.12-2.6,4.15,4.15,0,0,0-1-1.36c-1.53-1.52-3.12-3-4.68-4.48s-3.05-2.53-3.19-4.67c0-.51-.17-2.08.17-2.49.22-.26.83-.2,1.18-.25s2.1-.27,1.7-.9c-.78-1.23-2.47-1.48-3.78-1.72a12.54,12.54,0,0,1-4.08-1.42,11.89,11.89,0,0,1-5.46-6.7,5.58,5.58,0,0,1-.29-2.46c.12-.91.57-1.74.73-2.64a3.15,3.15,0,0,1,.9-2.05s-6.31-4.64-6.88-5a31,31,0,0,1-7.51-7.17,6,6,0,0,1-1.35-3.86c.14-1.45,1.11-2.66,1.74-3.93-2.23-2.23-4.66-4.16-7-6.25a15.78,15.78,0,0,1-4.3-5.48,4.43,4.43,0,0,1-.37-2.94c.38-1.34,1.55-1.76,2.68-2.33-2.54-2.54-5.62-4.44-8.11-7.09a3.64,3.64,0,0,1-.75-1,3.16,3.16,0,0,1,.17-2.58c.77-1.75,2.37-3,3.69-4.33-.43.44-2.53-.41-3-.63-1.48-.69-1.46-2.26-2.25-3.51a6.5,6.5,0,0,1-.74-1.16c-.31-.85.68-4.7,2-4.7h-2.85c-2.14,0-5.7-1.54-6-3.93a5,5,0,0,1,.41-2.37,1.68,1.68,0,0,1,.32-.57,2.17,2.17,0,0,1,.56-.39,6.11,6.11,0,0,1,2.17-.68c.63-.08,2,.08,1.25-1a2.25,2.25,0,0,0-.69-.61c-1.08-.73-2.31-1.22-3.36-1.94a17,17,0,0,1-2.59-2.89,19.68,19.68,0,0,0-4.19-3.27c-3.94-2.57-7.81-5.51-10.16-9.58a4.93,4.93,0,0,1,.11-5.72c3.78-.53,7.1,1.15,10.61,2.29q3.26,1.07,6.56,2c1.1.31,2.2.61,3.31.9.64.17,2,.28,2.49.76-1.68-1.68-4.1-2.86-6-4.34q-3.87-3-7.66-6.2C103.18,146.5,97,141,91.13,135.29a3.32,3.32,0,0,1-1-1.36,2.91,2.91,0,0,1,0-1,.9.9,0,0,1,.11-.46c.61-.88,4.07.59,4.79.9,1.6.67,3.1,1.55,4.69,2.26,3.73,1.67,7.42,3.46,11.1,5.24l8.42,4.08L132,151.1l13.21,6.4c3.65,1.77,7.24,3.33,11,4.82l-6-4.51c-3.71-2.79-7-6.29-10.41-9.45s-7-6.62-10.47-10c-3.26-3.19-6.74-6.26-9.56-9.86q-6.33-8.1-12.16-16.57a8.36,8.36,0,0,1-1.32-2.48c-.32-1.14,0-3.18,1.61-3.09a3.18,3.18,0,0,1,1.08.35c4.79,2.24,8.89,5.62,13,8.89,4.51,3.61,9.2,7,13.89,10.35,3.35,2.41,6.72,4.77,10,7.23,2.24,1.68,4.45,3.41,6.79,4.94s4.89,2.69,7.14,4.41a17.47,17.47,0,0,0,5.42,2.8c-.63-.21-1-1.31-1.3-1.82-.5-.83-1-1.64-1.54-2.44-2.75-4.15-5.94-8-8.85-12-2.79-3.85-5.31-7.89-7.72-12-2.3-3.89-4.89-7.75-6.38-12-.48-1.36-.86-2.76-1.42-4.09-.8-1.87-1.94-3.58-2.66-5.49-.32-.86-2.16-6.15,0-6.06a1.44,1.44,0,0,1,.67.27c2.08,1.33,3.3,3.61,4.7,5.57,1.6,2.23,3.82,4.11,5.68,6.13,4.06,4.4,7.63,9.28,11.63,13.69,3.43,3.78,7.06,7.36,10.5,11.12a43.84,43.84,0,0,0,4.18,4.54,28,28,0,0,1,4.56,4.06c1,1.25,1.63,2.71,2.54,4,1.81,2.57,4.5,4.31,6.82,6.37,2.62,2.32,5.16,4.76,7.65,7.21,1.54,1.52,3,3.09,4.55,4.63a19.14,19.14,0,0,0,3.37,2.35c-.57-.38-1.1-1.79-1.48-2.37-.8-1.2-1.55-2.42-2.28-3.66-1.47-2.47-2.83-5-4.17-7.55a159.68,159.68,0,0,0-8.89-15.37,41.21,41.21,0,0,1-3.65-5.89c-2-4.38-2.17-9.36-4.36-13.67a40,40,0,0,1-4.19-14.46,6,6,0,0,1,2.21.22c1.35.7,2.26,2.4,3.07,3.62,1.06,1.6,2,3.27,3,4.9,5.43,8.72,12,16.69,17.7,25.23l7,9c2.31,3,4.51,6,7,8.89,3,3.57,6.35,6.93,9.16,10.7,2,2.64,3.69,5.47,5.74,8.06a76.82,76.82,0,0,0,6.15,6.35c-.52-1.29-.94-2.67-1.55-3.93s-1.38-2.39-2-3.65a5.82,5.82,0,0,1-.6-1.88,2.24,2.24,0,0,1,.59-1.83,2.18,2.18,0,0,1,2.06-.42,4.69,4.69,0,0,1,1.86,1.15A11.55,11.55,0,0,1,237,166a15.75,15.75,0,0,0,1.2,2.26c.51.7,1.21,1.25,1.75,1.93,1.25,1.57,1.91,3.58,3,5.24a64.24,64.24,0,0,0,4.07,5.23c2.29,2.72,4.62,5.41,7,8.1a87.26,87.26,0,0,0,6,6.48,62.27,62.27,0,0,0,7.43,5.6c5.12,3.54,10.46,6.73,15.67,10.12,11.25,7.33,22,15.46,32.76,23.48L322,239c1.44,1.08,2.88,2.17,4.21,3.38a37.08,37.08,0,0,1,3.92,4.29,57.54,57.54,0,0,1,7.63,14c1,2.49,2,5,3.06,7.49.53,1.24,1.06,2.47,1.64,3.69a4.32,4.32,0,0,0,2.73,2.51c.3.13,2.56-1.68,2.92-1.91l3.27-2.11c2-1.3,4-2.6,6.07-3.86l13-7.95a8.82,8.82,0,0,0,1.47-1,8.69,8.69,0,0,0,1.49-1.91,41.18,41.18,0,0,1,2.88-4.29c2-2.44,5.09-3.48,7.77-5q4.77-2.68,9.37-5.65a34.63,34.63,0,0,1,3.89-2.31c1.09-.52,2.24-.91,3.34-1.41a30.26,30.26,0,0,0,6.18-3.85c4.7-3.63,8.38-8.76,13.5-11.83s8.88-6.13,11.94-11.4,4.73-11.19,7.94-16.32a3.47,3.47,0,0,1,3.21-1.9c3,.48,3.35,5.72,4.1,7.91.12.37.38.82.76.76s.4-.29.52-.51c4.59-8.82,1.09-19.5,5.19-28.48,7.72-16.89,18.95,9.64,20.21,16.41.12.61.3,1.32.88,1.57-.07,0,7.21-23.69,7.52-25.74,1-7,1.75-14.3,5.65-20.42a5.58,5.58,0,0,1,2.7-2.52,4.11,4.11,0,0,1,3.82,1c4.83,4.1,5.35,12.2,6.41,18a60.05,60.05,0,0,1,.84,6.68c.11,1.58-.42,4.17,1.21,5.13-.83-.49,4.27-13.79,4.66-15.52,1.85-8.17,1.4-18.76,9.94-23.3a6,6,0,0,1,3.68-.83,5.12,5.12,0,0,1,3.46,2.69,21.17,21.17,0,0,1,1.94,7.35,99,99,0,0,1,1.25,12.59c3.67-5.5,5.88-12.1,9-18,1.57-2.92,5.46,3.9,5.83,4.71,3.08,6.64,1.8,14.6,2.4,21.7.71,8.45-.45,16.66-2.36,24.88-1,4.14-2.77,8-3,12.34a1.48,1.48,0,0,0,.57,1.4c.77.44,1.66-.33,2.11-1.09a36.24,36.24,0,0,0,1.87-4.46,7.08,7.08,0,0,1,2.56-3.48c2.84,1.75,2.81,7.64,2.68,10.47a58.79,58.79,0,0,1-2.39,12.52,30.22,30.22,0,0,1-1.64,4.92,25.8,25.8,0,0,1-2.27,3.82,93.07,93.07,0,0,1-6,8c-2.16,2.5-5.11,4.15-7.74,6.08-2,1.46-3.84,3.1-5.84,4.55-5,3.6-10.74,5.93-16.15,8.85-10.21,5.5-19.07,13.35-28.7,19.77l1,1c2.65,2.65-9,7.16-10,7.62-6,2.78-11.94,5.57-17.87,8.43-5.29,2.55-10.55,5.15-15.93,7.48-1.93.84-12.1,4.93-11.26,7.59.3.93,7,2.65,8.1,3.08,2.74,1.09,5.49,2.21,8.16,3.45A15.89,15.89,0,0,1,450,320.44a18.39,18.39,0,0,0,1.44,4.94,19.78,19.78,0,0,0,1.94,2.44c3.11,3.74,4.92,7.79,8.78,10.89a51.24,51.24,0,0,1,10.17,10.93,9.22,9.22,0,0,1,1.83,5.68v1c0,.67-11.58-1.17-12.51-1.34l-2.47-.44c-1.18-.21-2.37-.42-3.53-.71a51.48,51.48,0,0,1-5.61-1.91c-3.61-1.39-7.57-4.08-11.33-3.16-2.9.71-5.58,2.16-8.47,2.91-5.19,1.36-10.65.91-15.95.72-3.92-.14-7.85-.12-11.78-.11-3.77,0-7-.26-10.6,1-6.83,2.41-12.83,6.65-19.59,9.23-1.6.61-3.24,1.13-4.78,1.87a55,55,0,0,0-4.91,2.9c-7.49,4.54-16.08,6.87-24.53,9.14-3.34.9-6.66,2-10.1,1.89-3-.07-5.93,0-8.89,0a1.84,1.84,0,0,0-1,.2,2.43,2.43,0,0,0-.73,1.15c-.83,1.72-2.62,2.2-3.86,3.44-1.65,1.65-2.54,3.69-4.58,5-4.71,3.11-12.21,2.5-17.61,2.31a15.06,15.06,0,0,1-4.49-.65c-1.72-.59-3.25-1.75-5.05-2a6.11,6.11,0,0,1-2.57-.56,14.13,14.13,0,0,1-1.24-1.21c-3.1-2.66-9.14.22-12.9-1.55a3.58,3.58,0,0,1-1.86-1.67c-.75-1.71-5.08.4-6.23.87a45.42,45.42,0,0,1-16.77,3.82c-6.29,0-12.42-1.72-18.42-3.42a5.39,5.39,0,0,1-2.89-1.53,16.8,16.8,0,0,0-1-1.5c-.83-.85-2.18-.81-3.36-.75a51,51,0,0,1-10.55-.53c-6.35-1-11.31-5.82-18-5.39a31.45,31.45,0,0,0-5.91,1.2c-11.59,3.07-23.49,4.69-35.29,6.66-13.39,2.25-27,2.94-40.58,3.11a2.71,2.71,0,0,1,.23-2,2.6,2.6,0,0,1,.69-.59c2.12-1.44,4.2-2.94,6.32-4.38,1.82-1.25,3.77-2.27,5.19-4a12,12,0,0,1,2.18-2.51,7.12,7.12,0,0,1,2.07-.92c4.91-1.53,10.12-.71,15-2,5.45-1.47,11-2.56,16.54-3.52,12.65-2.19,25.8-3.19,37.76-8,8.23-3.3,17.05-4.63,25.12-8.61a138.41,138.41,0,0,0,18.53-10.67A34.34,34.34,0,0,1,241.16,334.32Z"/></g></svg>